<?xml version="1.0" standalone="no"?>
<!DOCTYPE svg PUBLIC "-//W3C//DTD SVG 20010904//EN"
 "http://www.w3.org/TR/2001/REC-SVG-20010904/DTD/svg10.dtd">
<svg version="1.0" xmlns="http://www.w3.org/2000/svg"
 width="768.000000pt" height="768.000000pt" viewBox="0 0 768.000000 768.000000"
 preserveAspectRatio="xMidYMid meet">
<metadata>
Created by potrace 1.11, written by Peter Selinger 2001-2013
</metadata>
<g transform="translate(0.000000,768.000000) scale(0.100000,-0.100000)"
fill="#000000" stroke="none">
<path d="M3717 7244 c-3 -3 -82 -7 -175 -9 -94 -2 -196 -7 -227 -10 -32 -3
-89 -8 -129 -11 -39 -3 -84 -7 -101 -8 -84 -10 -153 -18 -175 -21 -14 -2 -47
-7 -75 -10 -27 -4 -84 -13 -125 -21 -41 -8 -86 -17 -100 -19 -65 -10 -226 -48
-236 -56 -6 -5 -14 -6 -17 -3 -4 4 -19 2 -34 -5 -15 -6 -37 -13 -49 -15 -12
-2 -54 -14 -95 -27 -41 -12 -78 -23 -84 -25 -33 -7 -291 -110 -297 -118 -4 -6
-8 -8 -8 -4 0 8 -111 -42 -133 -60 -6 -5 -23 -13 -37 -17 -14 -4 -27 -10 -30
-14 -3 -3 -21 -14 -40 -24 -51 -27 -93 -51 -105 -59 -5 -5 -46 -31 -90 -60
-44 -29 -82 -54 -85 -58 -3 -3 -30 -24 -60 -46 -30 -23 -68 -52 -83 -65 -53
-45 -229 -224 -256 -259 -14 -19 -34 -44 -44 -55 -49 -54 -177 -253 -198 -307
-6 -16 -15 -28 -20 -28 -5 0 -9 -5 -9 -11 0 -5 -14 -40 -31 -77 -17 -37 -35
-76 -40 -87 -22 -51 -41 -101 -44 -115 -2 -8 -15 -48 -29 -89 -14 -40 -23 -77
-20 -82 3 -5 1 -9 -4 -9 -5 0 -9 -6 -10 -12 -1 -19 -12 -69 -22 -103 -4 -16
-11 -46 -14 -65 -3 -19 -8 -46 -11 -60 -6 -28 -10 -57 -20 -145 -4 -33 -9 -73
-12 -90 -3 -16 -7 -130 -9 -252 -5 -248 -2 -263 67 -331 46 -45 97 -59 214
-57 108 2 153 16 199 61 50 51 60 89 62 235 1 75 4 141 8 147 3 6 3 13 -2 16
-5 3 -7 20 -5 38 1 18 5 67 7 108 5 70 11 118 21 179 2 14 7 46 10 71 4 25 11
50 16 56 5 6 7 13 4 16 -3 2 6 43 19 91 84 304 234 559 458 777 97 95 87 86
188 164 101 79 225 154 371 224 123 60 354 152 383 152 8 0 17 4 20 9 3 5 18
11 33 14 16 2 73 17 127 32 55 15 111 29 125 32 14 2 46 9 71 14 25 6 56 13
70 15 67 11 87 14 110 19 26 6 87 15 130 20 14 1 50 6 80 9 97 12 133 15 225
21 50 3 117 8 150 10 133 10 582 4 698 -9 23 -3 78 -8 122 -12 44 -3 87 -8 97
-9 9 -2 38 -6 65 -10 26 -4 59 -9 73 -11 14 -3 36 -7 50 -9 51 -8 95 -16 110
-20 8 -2 31 -7 50 -10 19 -3 80 -18 135 -32 55 -14 105 -26 110 -28 6 -1 17
-4 25 -8 8 -3 74 -24 145 -47 72 -23 134 -46 140 -51 5 -5 16 -9 24 -9 23 0
288 -131 379 -188 46 -29 87 -52 92 -52 5 0 10 -3 12 -8 2 -4 32 -28 68 -54
187 -133 378 -334 502 -528 45 -71 129 -230 122 -230 -4 0 -2 -6 4 -12 11 -14
56 -128 67 -168 3 -14 10 -34 15 -45 7 -18 17 -55 20 -77 1 -4 7 -29 15 -55
18 -64 29 -134 51 -328 5 -42 5 -2553 1 -2590 -3 -16 -7 -48 -11 -70 -3 -22
-8 -60 -11 -84 -3 -24 -12 -73 -21 -110 -8 -36 -17 -73 -19 -82 -13 -64 -82
-243 -124 -324 -78 -148 -104 -184 -210 -292 -134 -136 -293 -217 -471 -239
-41 -4 -980 -9 -1056 -5 -7 1 -15 27 -18 59 -35 297 -249 529 -536 579 -14 3
-133 5 -265 7 -201 1 -253 -1 -319 -16 -43 -10 -84 -22 -90 -26 -6 -3 -13 -7
-16 -8 -3 0 -18 -7 -35 -14 -110 -51 -234 -173 -288 -282 -39 -81 -39 -80 -61
-166 -13 -46 -14 -215 -2 -257 22 -84 63 -175 78 -175 4 0 8 -6 8 -14 0 -7 26
-37 58 -65 72 -65 66 -61 136 -95 78 -37 105 -46 206 -63 56 -10 2234 -11
2310 -1 30 4 64 9 75 11 11 2 38 8 60 12 22 5 45 9 52 11 45 9 169 49 171 56
2 4 9 8 16 8 23 0 176 79 253 131 88 60 323 289 323 316 0 2 18 31 40 63 87
128 185 356 229 535 10 44 23 94 27 110 10 41 11 48 18 92 3 21 8 49 11 63 3
14 7 54 11 90 3 36 8 76 11 90 5 22 14 870 12 1190 0 69 1 141 2 160 0 19 1
42 1 50 0 8 -1 188 -1 400 0 212 0 390 0 395 0 6 0 39 0 75 0 36 -1 99 0 140
0 98 -10 338 -16 370 -3 14 -7 48 -10 75 -3 28 -7 61 -9 75 -2 14 -7 43 -10
65 -3 22 -8 51 -12 65 -3 14 -8 39 -11 55 -2 17 -7 37 -10 45 -8 19 -7 17 -17
65 -9 44 -75 247 -101 310 -48 116 -125 270 -171 342 -19 29 -34 56 -34 59 0
2 -4 10 -10 17 -44 54 -60 76 -60 82 0 3 -6 12 -12 20 -7 7 -24 27 -38 45
-100 129 -272 301 -401 402 -212 166 -506 330 -759 425 -90 34 -287 100 -335
112 -22 5 -74 19 -115 30 -41 11 -88 22 -105 25 -16 3 -64 13 -105 21 -41 9
-87 18 -102 20 -15 2 -36 6 -47 10 -10 3 -40 7 -65 10 -26 2 -59 6 -74 9 -35
7 -116 17 -167 21 -22 2 -62 6 -90 9 -193 20 -519 33 -580 22 -11 -2 -27 0
-36 5 -9 5 -19 6 -22 3z"/>
<path d="M3608 6155 c-2 -2 -25 -6 -53 -10 -45 -5 -89 -15 -150 -31 -11 -3
-24 -6 -30 -8 -43 -10 -103 -35 -180 -73 -133 -66 -146 -74 -221 -132 -69 -53
-244 -227 -244 -243 0 -15 -20 -8 -77 29 -180 115 -410 171 -608 148 -96 -11
-164 -24 -180 -34 -5 -3 -12 -6 -15 -7 -3 -1 -20 -5 -37 -9 -18 -4 -33 -12
-33 -18 0 -6 -3 -7 -6 -4 -4 3 -16 1 -28 -5 -11 -7 -23 -13 -26 -13 -5 -1 -39
-20 -75 -42 -11 -7 -27 -16 -35 -20 -8 -4 -20 -12 -26 -17 -7 -6 -31 -27 -55
-46 -60 -48 -131 -122 -165 -173 -16 -23 -32 -43 -36 -45 -5 -2 -8 -8 -8 -13
0 -5 -11 -27 -25 -49 -14 -22 -22 -40 -19 -40 4 0 -1 -9 -12 -21 -10 -12 -18
-24 -17 -28 2 -3 -6 -33 -17 -67 -35 -105 -44 -159 -44 -279 -1 -108 9 -191
30 -257 3 -11 7 -30 9 -41 9 -61 160 -545 194 -622 5 -11 46 -121 92 -245 45
-124 90 -243 99 -265 38 -88 85 -210 82 -217 -1 -5 3 -8 8 -8 6 0 10 -6 10
-14 0 -12 39 -111 75 -191 8 -17 18 -43 24 -58 10 -25 15 -27 68 -28 32 -1 63
0 68 1 6 1 46 1 90 1 155 -2 187 -1 195 4 5 3 11 1 15 -5 4 -6 11 -7 17 -4 6
4 44 6 85 6 l74 -2 -6 73 c-4 39 -8 95 -10 122 -11 154 -16 214 -20 250 -7 73
-19 239 -19 292 -1 29 -4 53 -7 53 -4 0 -7 15 -6 33 0 36 -10 175 -19 252 -3
28 -7 77 -9 110 -2 33 -6 85 -9 115 -18 231 -18 238 6 265 18 20 37 26 83 31
62 6 125 8 160 5 33 -2 53 -50 60 -137 3 -43 8 -104 11 -134 3 -30 7 -82 9
-115 2 -33 6 -89 10 -125 3 -36 8 -94 11 -130 3 -36 7 -90 9 -120 2 -30 7 -89
10 -130 3 -41 8 -100 10 -130 2 -30 6 -80 9 -110 3 -30 8 -91 12 -135 3 -44 7
-98 9 -120 2 -22 6 -75 9 -118 3 -44 9 -83 12 -88 4 -7 183 -13 309 -10 11 1
54 0 95 0 41 0 82 0 90 0 8 0 87 0 175 1 l160 0 -1 768 c-1 834 -2 813 54 827
13 3 59 5 103 4 44 -1 82 1 86 4 11 11 61 -32 70 -60 4 -16 8 -369 8 -785 l-1
-756 70 -1 c147 -2 178 -1 186 4 5 3 11 1 15 -5 4 -6 11 -7 17 -4 5 4 51 6
101 5 51 -1 97 -2 102 -2 6 0 60 1 122 2 61 0 116 -2 122 -6 6 -3 11 -3 11 2
0 4 22 6 50 5 49 -4 50 -3 51 25 0 15 2 48 4 73 2 25 6 74 9 110 3 36 8 90 11
120 2 30 7 89 10 130 10 127 22 274 29 370 3 30 7 91 11 135 3 44 8 98 10 120
3 22 7 81 11 130 8 132 11 170 20 244 4 36 6 74 6 83 0 10 12 28 28 42 25 21
37 23 87 20 150 -10 173 -17 193 -54 10 -18 8 -85 -5 -235 -3 -33 -8 -87 -10
-120 -2 -33 -7 -89 -10 -125 -3 -36 -8 -94 -10 -129 -5 -69 -13 -160 -20 -231
-2 -25 -7 -83 -10 -130 -3 -47 -8 -105 -10 -130 -3 -25 -7 -83 -10 -130 -3
-47 -7 -101 -9 -120 -12 -97 -14 -190 -6 -195 5 -3 38 -6 72 -5 231 1 435 1
443 0 6 -1 24 -2 42 -1 28 1 35 7 53 49 12 26 23 52 24 57 1 6 8 20 14 33 7
12 10 22 6 22 -3 0 0 7 7 16 7 9 14 21 15 28 2 11 86 221 106 266 6 14 12 30
14 35 3 12 91 242 104 270 5 11 16 40 24 65 13 43 39 112 56 155 4 11 18 49
30 85 12 36 25 72 28 80 3 8 6 18 7 23 2 4 4 9 5 12 1 3 3 8 4 13 1 4 21 68
45 142 59 189 63 199 66 218 2 9 4 17 5 17 2 0 7 22 15 60 3 17 8 38 11 47 35
116 39 318 9 446 -3 12 -7 30 -9 40 -5 22 -33 96 -57 149 -22 49 -96 166 -128
203 -50 57 -101 108 -131 131 -18 13 -38 30 -45 37 -8 6 -16 12 -19 12 -3 0
-25 13 -49 30 -118 79 -328 139 -502 142 -32 1 -157 -14 -184 -22 -17 -5 -34
-9 -36 -9 -3 -1 -6 -1 -7 -2 -2 0 -10 -2 -18 -4 -8 -2 -37 -11 -65 -20 -43
-15 -81 -33 -206 -100 -11 -5 -19 -13 -19 -17 0 -5 -7 -8 -15 -8 -8 0 -15 -6
-15 -12 0 -7 -12 3 -27 22 -50 64 -197 205 -266 252 -37 26 -104 67 -150 92
-84 45 -279 116 -320 116 -13 0 -27 3 -30 7 -4 3 -19 8 -35 10 -39 5 -330 12
-334 8z"/>
<path d="M1959 2645 c-3 -2 -33 -5 -67 -6 -35 -1 -65 -6 -68 -10 -4 -8 -7
-442 -3 -466 1 -4 1 -12 0 -18 -2 -13 -2 -451 0 -462 1 -4 1 -12 -1 -18 -2
-14 1 -158 5 -215 7 -105 102 -214 219 -248 11 -3 208 -8 438 -9 l416 -4 11
52 c29 132 100 258 205 365 67 67 158 137 194 148 12 4 22 12 22 17 0 5 3 8 8
7 4 -1 22 6 40 15 17 10 32 14 32 10 0 -5 4 -3 8 3 8 12 108 44 161 53 55 8
720 7 773 -1 55 -9 190 -56 199 -70 3 -5 9 -8 12 -6 11 6 131 -80 181 -129
112 -110 202 -267 231 -403 2 -8 6 -25 10 -38 l8 -23 199 1 c204 2 282 13 315
46 8 8 19 14 25 14 16 0 76 67 99 112 12 24 23 68 25 102 3 33 6 62 9 64 2 2
0 14 -5 27 -5 13 -7 25 -4 28 9 8 4 1041 -5 1050 -4 4 -26 8 -47 9 -81 0 -284
-1 -404 -3 -8 0 -62 0 -120 0 -58 0 -109 0 -115 -1 -5 0 -57 1 -115 1 -58 0
-114 1 -125 0 -11 0 -67 0 -125 0 -58 0 -109 0 -115 -1 -5 0 -57 1 -115 1 -58
0 -114 1 -125 0 -11 0 -67 0 -125 0 -58 0 -109 0 -115 -1 -5 0 -57 1 -115 1
-58 0 -114 1 -125 0 -11 0 -67 0 -125 0 -58 0 -109 0 -115 -1 -5 0 -57 1 -115
1 -58 0 -114 1 -125 0 -11 0 -67 0 -125 0 -58 0 -109 0 -115 -1 -5 0 -57 1
-115 1 -58 0 -114 1 -125 0 -11 0 -67 0 -125 0 -58 0 -109 0 -115 -1 -13 0
-205 2 -280 3 -33 1 -64 1 -70 1 -83 -3 -237 -2 -244 2 -4 3 -10 4 -12 1z"/>
</g>
</svg>
