<?xml version="1.0" encoding="UTF-8"?>
<svg width="1344px" height="472px" viewBox="0 0 1344 472" version="1.1" xmlns="http://www.w3.org/2000/svg" xmlns:xlink="http://www.w3.org/1999/xlink">
    <!-- Generator: Sketch 54.1 (76490) - https://sketchapp.com -->
    <title>Covid by region</title>
    <desc>Created with Sketch.</desc>
    <g id="Covid-by-region" stroke="none" stroke-width="1" fill="none" fill-rule="evenodd">
        <path d="M149.396,247.018 C131.923913,247.018 116.636066,243.322037 103.532,235.93 C90.4279345,228.537963 80.3480353,217.954069 73.292,204.178 C66.2359647,190.401931 62.708,174.274092 62.708,155.794 C62.708,137.313908 66.2359647,121.228068 73.292,107.536 C80.3480353,93.8439315 90.4279345,83.302037 103.532,75.91 C116.636066,68.517963 131.923913,64.822 149.396,64.822 C171.40411,64.822 190.38792,70.8699395 206.348,82.966 C208.868013,84.9820101 210.631995,86.9979899 211.64,89.014 C212.648005,91.0300101 213.152,93.5499849 213.152,96.574 C213.152,100.942022 211.934012,104.679984 209.498,107.788 C207.061988,110.896016 204.080018,112.45 200.552,112.45 C198.199988,112.45 196.142009,112.156003 194.378,111.568 C192.613991,110.979997 190.640011,109.930008 188.456,108.418 C181.735966,104.049978 175.520029,100.90001 169.808,98.968 C164.095971,97.0359903 157.964033,96.07 151.412,96.07 C135.283919,96.07 123.146041,101.06795 114.998,111.064 C106.849959,121.06005 102.776,135.969901 102.776,155.794 C102.776,195.7782 118.987838,215.77 151.412,215.77 C157.628031,215.77 163.507972,214.80401 169.052,212.872 C174.596028,210.93999 181.063963,207.790022 188.456,203.422 C190.976013,201.909992 193.075992,200.860003 194.756,200.272 C196.436008,199.683997 198.367989,199.39 200.552,199.39 C204.080018,199.39 207.061988,200.943984 209.498,204.052 C211.934012,207.160016 213.152,210.897978 213.152,215.266 C213.152,218.290015 212.606005,220.85199 211.514,222.952 C210.421995,225.05201 208.700012,227.025991 206.348,228.874 C190.38792,240.97006 171.40411,247.018 149.396,247.018 Z M320.252,247.018 C302.611912,247.018 287.282065,243.280037 274.262,235.804 C261.241935,228.327963 251.204035,217.744068 244.148,204.052 C237.091965,190.359932 233.564,174.274092 233.564,155.794 C233.564,137.313908 237.091965,121.228068 244.148,107.536 C251.204035,93.8439315 261.241935,83.302037 274.262,75.91 C287.282065,68.517963 302.611912,64.822 320.252,64.822 C337.892088,64.822 353.221935,68.517963 366.242,75.91 C379.262065,83.302037 389.299965,93.8439315 396.356,107.536 C403.412035,121.228068 406.94,137.313908 406.94,155.794 C406.94,174.274092 403.412035,190.359932 396.356,204.052 C389.299965,217.744068 379.262065,228.327963 366.242,235.804 C353.221935,243.280037 337.892088,247.018 320.252,247.018 Z M320.252,216.526 C335.036074,216.526 346.669958,211.318052 355.154,200.902 C363.638042,190.485948 367.88,175.450098 367.88,155.794 C367.88,136.137902 363.680042,121.144052 355.28,110.812 C346.879958,100.479948 335.204075,95.314 320.252,95.314 C305.299925,95.314 293.666042,100.479948 285.35,110.812 C277.033958,121.144052 272.876,136.137902 272.876,155.794 C272.876,175.450098 277.075958,190.485948 285.476,200.902 C293.876042,211.318052 305.467926,216.526 320.252,216.526 Z M565.448,76.162 C566.960008,72.6339824 569.143986,69.9880088 572,68.224 C574.856014,66.4599912 578.047982,65.578 581.576,65.578 C586.616025,65.578 591.15198,67.2579832 595.184,70.618 C599.21602,73.9780168 601.232,78.0939756 601.232,82.966 C601.232,85.4860126 600.644006,88.0059874 599.468,90.526 L531.428,234.166 C529.579991,238.030019 526.808018,241.011989 523.112,243.112 C519.415982,245.21201 515.384022,246.262 511.016,246.262 C506.647978,246.262 502.616018,245.21201 498.92,243.112 C495.223982,241.011989 492.452009,238.030019 490.604,234.166 L422.564,90.526 C421.387994,88.1739882 420.8,85.7380126 420.8,83.218 C420.8,78.1779748 422.899979,73.9780168 427.1,70.618 C431.300021,67.2579832 436.003974,65.578 441.212,65.578 C444.740018,65.578 447.973985,66.4599912 450.914,68.224 C453.854015,69.9880088 456.079992,72.6339824 457.592,76.162 L511.52,194.098 L565.448,76.162 Z M640.04,246.262 C633.99197,246.262 629.204018,244.498018 625.676,240.97 C622.147982,237.441982 620.384,232.65403 620.384,226.606 L620.384,85.234 C620.384,79.3539706 622.147982,74.6500176 625.676,71.122 C629.204018,67.5939824 633.99197,65.83 640.04,65.83 C646.08803,65.83 650.875982,67.5939824 654.404,71.122 C657.932018,74.6500176 659.696,79.3539706 659.696,85.234 L659.696,226.606 C659.696,232.65403 657.932018,237.441982 654.404,240.97 C650.875982,244.498018 646.08803,246.262 640.04,246.262 Z M713.372,244.75 C707.491971,244.75 702.956016,243.154016 699.764,239.962 C696.571984,236.769984 694.976,232.234029 694.976,226.354 L694.976,85.486 C694.976,79.6059706 696.571984,75.070016 699.764,71.878 C702.956016,68.685984 707.491971,67.09 713.372,67.09 L764.024,67.09 C783.344097,67.09 799.97593,70.6179647 813.92,77.674 C827.86407,84.7300353 838.531963,94.8939336 845.924,108.166 C853.316037,121.438066 857.012,137.313908 857.012,155.794 C857.012,174.274092 853.358037,190.191933 846.05,203.548 C838.741963,216.904067 828.11607,227.109965 814.172,234.166 C800.22793,241.222035 783.512097,244.75 764.024,244.75 L713.372,244.75 Z M761.252,212.998 C799.052189,212.998 817.952,193.930191 817.952,155.794 C817.952,117.82581 799.052189,98.842 761.252,98.842 L734.288,98.842 L734.288,212.998 L761.252,212.998 Z M900.356,192.082 C888.42794,192.082 882.464,187.12605 882.464,177.214 C882.464,167.30195 888.42794,162.346 900.356,162.346 L949.748,162.346 C961.67606,162.346 967.64,167.30195 967.64,177.214 C967.64,187.12605 961.67606,192.082 949.748,192.082 L900.356,192.082 Z M1108.004,213.25 C1120.26806,213.25 1126.4,218.457948 1126.4,228.874 C1126.4,239.458053 1120.26806,244.75 1108.004,244.75 L1021.82,244.75 C1009.38794,244.75 1003.172,239.458053 1003.172,228.874 C1003.172,218.457948 1009.38794,213.25 1021.82,213.25 L1045.256,213.25 L1045.256,110.182 L1023.08,123.538 C1020.55999,125.050008 1018.04001,125.806 1015.52,125.806 C1011.31998,125.806 1007.75001,124.042018 1004.81,120.514 C1001.86999,116.985982 1000.4,113.038022 1000.4,108.67 C1000.4,102.789971 1003.00397,98.3380151 1008.212,95.314 L1048.028,71.374 C1053.90803,67.8459824 1059.78797,66.082 1065.668,66.082 C1071.21203,66.082 1075.74798,67.8039828 1079.276,71.248 C1082.80402,74.6920172 1084.568,79.3539706 1084.568,85.234 L1084.568,213.25 L1108.004,213.25 Z M1201.244,64.822 C1224.26012,64.822 1242.06794,72.4659236 1254.668,87.754 C1267.26806,103.042076 1273.568,124.881858 1273.568,153.274 C1273.568,172.258095 1270.62803,188.847929 1264.748,203.044 C1258.86797,217.240071 1250.42606,228.117962 1239.422,235.678 C1228.41794,243.238038 1215.60807,247.018 1200.992,247.018 C1191.41595,247.018 1181.75605,245.422016 1172.012,242.23 C1162.26795,239.037984 1153.95203,234.586029 1147.064,228.874 C1144.71199,227.025991 1142.99001,225.05201 1141.898,222.952 C1140.80599,220.85199 1140.26,218.290015 1140.26,215.266 C1140.26,210.897978 1141.47799,207.160016 1143.914,204.052 C1146.35001,200.943984 1149.33198,199.39 1152.86,199.39 C1155.04401,199.39 1156.93399,199.683997 1158.53,200.272 C1160.12601,200.860003 1162.26799,201.909992 1164.956,203.422 C1171.67603,207.45402 1177.68197,210.603989 1182.974,212.872 C1188.26603,215.140011 1193.68397,216.274 1199.228,216.274 C1209.64405,216.274 1217.91797,211.486048 1224.05,201.91 C1230.18203,192.333952 1233.668,178.894087 1234.508,161.59 C1230.64398,167.974032 1225.18404,173.055981 1218.128,176.836 C1211.07196,180.616019 1203.17604,182.506 1194.44,182.506 C1184.02395,182.506 1174.74204,180.070024 1166.594,175.198 C1158.44596,170.325976 1152.06202,163.522044 1147.442,154.786 C1142.82198,146.049956 1140.512,136.138055 1140.512,125.05 C1140.512,113.457942 1143.11597,103.084046 1148.324,93.928 C1153.53203,84.7719542 1160.75595,77.6320256 1169.996,72.508 C1179.23605,67.3839744 1189.65194,64.822 1201.244,64.822 Z M1203.512,152.014 C1211.40804,152.014 1217.79198,149.410026 1222.664,144.202 C1227.53602,138.993974 1229.972,132.190042 1229.972,123.79 C1229.972,115.389958 1227.53602,108.544026 1222.664,103.252 C1217.79198,97.9599735 1211.40804,95.314 1203.512,95.314 C1195.61596,95.314 1189.27402,97.917974 1184.486,103.126 C1179.69798,108.334026 1177.304,115.221957 1177.304,123.79 C1177.304,132.190042 1179.69798,138.993974 1184.486,144.202 C1189.27402,149.410026 1195.61596,152.014 1203.512,152.014 Z" id="COVID-19" fill="#424242" fill-rule="nonzero"></path>
        <path d="M331.4895,301.75 C339.468207,301.75 346.511803,303.682314 352.6205,307.547 C358.729197,311.411686 363.49765,316.896964 366.926,324.003 C370.35435,331.109036 372.0685,339.399286 372.0685,348.874 C372.0685,358.224047 370.35435,366.514297 366.926,373.745 C363.49765,380.975703 358.698031,386.585647 352.527,390.575 C346.355969,394.564353 339.343539,396.559 331.4895,396.559 C324.632799,396.559 318.586526,395.094181 313.3505,392.1645 C308.114474,389.234819 304.12518,385.027361 301.3825,379.542 L301.3825,387.022 C301.3825,389.76468 300.541008,391.977492 298.858,393.6605 C297.174992,395.343508 294.899848,396.185 292.0325,396.185 C289.165152,396.185 286.858842,395.343508 285.1135,393.6605 C283.368158,391.977492 282.4955,389.76468 282.4955,387.022 L282.4955,271.456 C282.4955,268.71332 283.399324,266.531675 285.207,264.911 C287.014676,263.290325 289.352152,262.48 292.2195,262.48 C294.96218,262.48 297.174992,263.259159 298.858,264.8175 C300.541008,266.375841 301.3825,268.463987 301.3825,271.082 L301.3825,318.954 C304.12518,313.468639 308.114474,309.230015 313.3505,306.238 C318.586526,303.245985 324.632799,301.75 331.4895,301.75 Z M327.0015,381.599 C335.104874,381.599 341.431644,378.731695 345.982,372.997 C350.532356,367.262305 352.8075,359.221385 352.8075,348.874 C352.8075,338.651282 350.563522,330.766194 346.0755,325.2185 C341.587478,319.670806 335.229541,316.897 327.0015,316.897 C318.773459,316.897 312.446689,319.701972 308.021,325.312 C303.595311,330.922028 301.3825,338.900615 301.3825,349.248 C301.3825,359.595385 303.595311,367.573972 308.021,373.184 C312.446689,378.794028 318.773459,381.599 327.0015,381.599 Z M457.9015,307.734 C458.649504,305.863991 459.740326,304.492671 461.174,303.62 C462.607674,302.747329 464.134825,302.311 465.7555,302.311 C468.124179,302.311 470.212324,303.121325 472.02,304.742 C473.827676,306.362675 474.7315,308.294989 474.7315,310.539 C474.7315,311.785673 474.482169,312.969994 473.9835,314.092 L421.9975,424.422 C421.249496,426.167342 420.158674,427.507495 418.725,428.4425 C417.291326,429.377505 415.764175,429.845 414.1435,429.845 C411.899489,429.845 409.873676,429.097007 408.066,427.601 C406.258324,426.104993 405.3545,424.235011 405.3545,421.991 C405.3545,420.993662 405.666164,419.747007 406.2895,418.251 L419.1925,390.762 L383.1015,314.092 C382.602831,313.094662 382.3535,311.972673 382.3535,310.726 C382.3535,308.357321 383.350823,306.362675 385.3455,304.742 C387.340177,303.121325 389.584154,302.311 392.0775,302.311 C395.817519,302.311 398.497825,304.056316 400.1185,307.547 L429.1035,371.875 L457.9015,307.734 Z M587.4925,302.124 C593.47653,301.749998 596.4685,304.305639 596.4685,309.791 C596.4685,312.53368 595.78284,314.59066 594.4115,315.962 C593.04016,317.33334 590.671517,318.143665 587.3055,318.393 L581.6955,318.954 C573.841461,319.702004 568.013352,322.444643 564.211,327.182 C560.408648,331.919357 558.5075,337.653966 558.5075,344.386 L558.5075,387.209 C558.5075,390.201015 557.634842,392.444993 555.8895,393.941 C554.144158,395.437007 551.90018,396.185 549.1575,396.185 C546.41482,396.185 544.139676,395.437007 542.332,393.941 C540.524324,392.444993 539.6205,390.201015 539.6205,387.209 L539.6205,311.1 C539.6205,308.232652 540.524324,306.019841 542.332,304.4615 C544.139676,302.903159 546.41482,302.124 549.1575,302.124 C551.650846,302.124 553.738992,302.903159 555.422,304.4615 C557.105008,306.019841 557.9465,308.17032 557.9465,310.913 L557.9465,319.889 C560.439846,314.403639 564.055143,310.227348 568.7925,307.36 C573.529857,304.492652 578.89047,302.809669 584.8745,302.311 L587.4925,302.124 Z M679.4965,372.249 C681.241842,372.249 682.675494,372.93466 683.7975,374.306 C684.919506,375.67734 685.4805,377.422656 685.4805,379.542 C685.4805,383.157351 683.236522,386.211654 678.7485,388.705 C674.385145,391.198346 669.616693,393.13066 664.443,394.502 C659.269307,395.87334 654.313857,396.559 649.5765,396.559 C635.115094,396.559 623.708208,392.351542 615.3555,383.9365 C607.002792,375.521458 602.8265,364.021073 602.8265,349.435 C602.8265,340.084953 604.665315,331.794703 608.343,324.564 C612.020685,317.333297 617.1943,311.723353 623.864,307.734 C630.5337,303.744647 638.107124,301.75 646.5845,301.75 C658.801894,301.75 668.463464,305.676961 675.5695,313.531 C682.675536,321.385039 686.2285,331.9816 686.2285,345.321 C686.2285,350.307692 683.984522,352.801 679.4965,352.801 L621.7135,352.801 C622.960173,372.12443 632.247747,381.786 649.5765,381.786 C654.18919,381.786 658.178483,381.162673 661.5445,379.916 C664.910517,378.669327 668.463481,377.048677 672.2035,375.054 C672.577502,374.804665 673.605992,374.274837 675.289,373.4645 C676.972008,372.654163 678.374494,372.249 679.4965,372.249 Z M646.9585,315.588 C639.727797,315.588 633.930855,317.89431 629.5675,322.507 C625.204145,327.11969 622.586171,333.602292 621.7135,341.955 L669.9595,341.955 C669.585498,333.477624 667.43502,326.963856 663.508,322.4135 C659.58098,317.863144 654.064536,315.588 646.9585,315.588 Z M782.5335,302.124 C785.400848,302.124 787.675992,302.965492 789.359,304.6485 C791.042008,306.331508 791.8835,308.54432 791.8835,311.287 L791.8835,387.957 C791.8835,401.919736 788.174704,412.453964 780.757,419.56 C773.339296,426.666036 762.399906,430.219 747.9385,430.219 C734.474433,430.219 723.254545,427.663359 714.2785,422.552 C709.66581,419.933987 707.3595,416.817351 707.3595,413.202 C707.3595,411.082656 707.951661,409.33734 709.136,407.966 C710.320339,406.59466 711.785158,405.909 713.5305,405.909 C715.151175,405.909 717.706816,406.843991 721.1975,408.714 C725.685522,410.833344 729.861814,412.485161 733.7265,413.6695 C737.591186,414.853839 742.203807,415.446 747.5645,415.446 C764.768586,415.446 773.3705,406.781753 773.3705,389.453 L773.3705,375.054 C770.752487,380.539361 766.763193,384.809151 761.4025,387.8635 C756.041807,390.917849 749.808536,392.445 742.7025,392.445 C734.723793,392.445 727.617864,390.575019 721.3845,386.835 C715.151135,383.094981 710.32035,377.796701 706.892,370.94 C703.46365,364.083299 701.7495,356.167045 701.7495,347.191 C701.7495,338.214955 703.494816,330.298701 706.9855,323.442 C710.476184,316.585299 715.306969,311.255852 721.478,307.4535 C727.649031,303.651148 734.723793,301.75 742.7025,301.75 C749.683868,301.75 755.82364,303.245985 761.122,306.238 C766.42036,309.230015 770.44082,313.468639 773.1835,318.954 L773.1835,311.1 C773.1835,308.35732 774.024992,306.175675 775.708,304.555 C777.391008,302.934325 779.666152,302.124 782.5335,302.124 Z M747.1905,377.485 C755.293874,377.485 761.65181,374.804693 766.2645,369.444 C770.87719,364.083307 773.1835,356.665714 773.1835,347.191 C773.1835,337.840953 770.908356,330.454527 766.358,325.0315 C761.807644,319.608473 755.418541,316.897 747.1905,316.897 C738.962459,316.897 732.511023,319.577307 727.836,324.938 C723.160977,330.298693 720.8235,337.716286 720.8235,347.191 C720.8235,356.665714 723.192143,364.083307 727.9295,369.444 C732.666857,374.804693 739.087126,377.485 747.1905,377.485 Z M827.7875,396.185 C825.04482,396.185 822.769676,395.437007 820.962,393.941 C819.154324,392.444993 818.2505,390.201015 818.2505,387.209 L818.2505,311.287 C818.2505,308.294985 819.154324,306.019841 820.962,304.4615 C822.769676,302.903159 825.04482,302.124 827.7875,302.124 C830.53018,302.124 832.774158,302.903159 834.5195,304.4615 C836.264842,306.019841 837.1375,308.294985 837.1375,311.287 L837.1375,387.209 C837.1375,390.201015 836.264842,392.444993 834.5195,393.941 C832.774158,395.437007 830.53018,396.185 827.7875,396.185 Z M827.7875,283.798 C824.172149,283.798 821.304844,282.800677 819.1855,280.806 C817.066156,278.811323 816.0065,276.19335 816.0065,272.952 C816.0065,269.71065 817.066156,267.123843 819.1855,265.1915 C821.304844,263.259157 824.172149,262.293 827.7875,262.293 C831.278184,262.293 834.114322,263.259157 836.296,265.1915 C838.477678,267.123843 839.5685,269.71065 839.5685,272.952 C839.5685,276.19335 838.508844,278.811323 836.3895,280.806 C834.270156,282.800677 831.402851,283.798 827.7875,283.798 Z M903.1485,396.559 C894.172455,396.559 886.287367,394.626686 879.493,390.762 C872.698633,386.897314 867.462685,381.380869 863.785,374.2125 C860.107315,367.044131 858.2685,358.722714 858.2685,349.248 C858.2685,339.648619 860.107315,331.264869 863.785,324.0965 C867.462685,316.928131 872.698633,311.411686 879.493,307.547 C886.287367,303.682314 894.172455,301.75 903.1485,301.75 C912.124545,301.75 920.009633,303.682314 926.804,307.547 C933.598367,311.411686 938.834315,316.928131 942.512,324.0965 C946.189685,331.264869 948.0285,339.648619 948.0285,349.248 C948.0285,358.722714 946.189685,367.044131 942.512,374.2125 C938.834315,381.380869 933.598367,386.897314 926.804,390.762 C920.009633,394.626686 912.124545,396.559 903.1485,396.559 Z M903.1485,381.599 C911.501208,381.599 917.890311,378.856361 922.316,373.371 C926.741689,367.885639 928.9545,359.84472 928.9545,349.248 C928.9545,338.775948 926.710522,330.766194 922.2225,325.2185 C917.734478,319.670806 911.376541,316.897 903.1485,316.897 C894.920459,316.897 888.562522,319.670806 884.0745,325.2185 C879.586478,330.766194 877.3425,338.775948 877.3425,349.248 C877.3425,359.84472 879.555311,367.885639 883.981,373.371 C888.406689,378.856361 894.795792,381.599 903.1485,381.599 Z M1018.1535,301.75 C1039.97028,301.75 1050.8785,314.029544 1050.8785,338.589 L1050.8785,387.209 C1050.8785,390.076348 1050.03701,392.289159 1048.354,393.8475 C1046.67099,395.405841 1044.33351,396.185 1041.3415,396.185 C1038.47415,396.185 1036.19901,395.374675 1034.516,393.754 C1032.83299,392.133325 1031.9915,389.95168 1031.9915,387.209 L1031.9915,339.524 C1031.9915,331.794628 1030.46435,326.122351 1027.41,322.507 C1024.35565,318.891649 1019.5872,317.084 1013.1045,317.084 C1005.4998,317.084 999.39119,319.452643 994.7785,324.19 C990.16581,328.927357 987.8595,335.285293 987.8595,343.264 L987.8595,387.209 C987.8595,389.95168 987.018008,392.133325 985.335,393.754 C983.651992,395.374675 981.376848,396.185 978.5095,396.185 C975.642152,396.185 973.335842,395.374675 971.5905,393.754 C969.845158,392.133325 968.9725,389.95168 968.9725,387.209 L968.9725,311.1 C968.9725,308.481987 969.876324,306.331508 971.684,304.6485 C973.491676,302.965492 975.76682,302.124 978.5095,302.124 C981.25218,302.124 983.433825,302.934325 985.0545,304.555 C986.675175,306.175675 987.4855,308.294987 987.4855,310.913 L987.4855,318.58 C990.477515,313.094639 994.653807,308.918348 1000.0145,306.051 C1005.37519,303.183652 1011.42147,301.75 1018.1535,301.75 Z" id="byregion" fill="#424242" fill-rule="nonzero"></path>
    </g>
</svg>