<?xml version="1.0" encoding="UTF-8"?>
<svg width="1214px" height="370px" viewBox="0 0 1214 370" version="1.1" xmlns="http://www.w3.org/2000/svg" xmlns:xlink="http://www.w3.org/1999/xlink">
    <!-- Generator: Sketch 54.1 (76490) - https://sketchapp.com -->
    <title>Covid by region</title>
    <desc>Created with Sketch.</desc>
    <g id="Covid-by-region" stroke="none" stroke-width="1" fill="none" fill-rule="evenodd">
        <path d="M87.396,186.018 C69.9239126,186.018 54.6360655,182.322037 41.532,174.93 C28.4279345,167.537963 18.3480353,156.954069 11.292,143.178 C4.23596472,129.401931 0.708,113.274092 0.708,94.794 C0.708,76.3139076 4.23596472,60.2280685 11.292,46.536 C18.3480353,32.8439315 28.4279345,22.302037 41.532,14.91 C54.6360655,7.51796304 69.9239126,3.822 87.396,3.822 C109.40411,3.822 128.38792,9.86993952 144.348,21.966 C146.868013,23.9820101 148.631995,25.9979899 149.64,28.014 C150.648005,30.0300101 151.152,32.5499849 151.152,35.574 C151.152,39.9420218 149.934012,43.6799845 147.498,46.788 C145.061988,49.8960155 142.080018,51.45 138.552,51.45 C136.199988,51.45 134.142009,51.1560029 132.378,50.568 C130.613991,49.9799971 128.640011,48.9300076 126.456,47.418 C119.735966,43.0499782 113.520029,39.9000097 107.808,37.968 C102.095971,36.0359903 95.9640328,35.07 89.412,35.07 C73.2839194,35.07 61.1460407,40.06795 52.998,50.064 C44.8499593,60.06005 40.776,74.9699009 40.776,94.794 C40.776,134.7782 56.9878379,154.77 89.412,154.77 C95.6280311,154.77 101.507972,153.80401 107.052,151.872 C112.596028,149.93999 119.063963,146.790022 126.456,142.422 C128.976013,140.909992 131.075992,139.860003 132.756,139.272 C134.436008,138.683997 136.367989,138.39 138.552,138.39 C142.080018,138.39 145.061988,139.943984 147.498,143.052 C149.934012,146.160016 151.152,149.897978 151.152,154.266 C151.152,157.290015 150.606005,159.85199 149.514,161.952 C148.421995,164.052011 146.700012,166.025991 144.348,167.874 C128.38792,179.97006 109.40411,186.018 87.396,186.018 Z M258.252,186.018 C240.611912,186.018 225.282065,182.280037 212.262,174.804 C199.241935,167.327963 189.204035,156.744068 182.148,143.052 C175.091965,129.359932 171.564,113.274092 171.564,94.794 C171.564,76.3139076 175.091965,60.2280685 182.148,46.536 C189.204035,32.8439315 199.241935,22.302037 212.262,14.91 C225.282065,7.51796304 240.611912,3.822 258.252,3.822 C275.892088,3.822 291.221935,7.51796304 304.242,14.91 C317.262065,22.302037 327.299965,32.8439315 334.356,46.536 C341.412035,60.2280685 344.94,76.3139076 344.94,94.794 C344.94,113.274092 341.412035,129.359932 334.356,143.052 C327.299965,156.744068 317.262065,167.327963 304.242,174.804 C291.221935,182.280037 275.892088,186.018 258.252,186.018 Z M258.252,155.526 C273.036074,155.526 284.669958,150.318052 293.154,139.902 C301.638042,129.485948 305.88,114.450098 305.88,94.794 C305.88,75.1379017 301.680042,60.1440517 293.28,49.812 C284.879958,39.4799483 273.204075,34.314 258.252,34.314 C243.299925,34.314 231.666042,39.4799483 223.35,49.812 C215.033958,60.1440517 210.876,75.1379017 210.876,94.794 C210.876,114.450098 215.075958,129.485948 223.476,139.902 C231.876042,150.318052 243.467926,155.526 258.252,155.526 Z M503.448,15.162 C504.960008,11.6339824 507.143986,8.98800882 510,7.224 C512.856014,5.45999118 516.047982,4.578 519.576,4.578 C524.616025,4.578 529.15198,6.2579832 533.184,9.618 C537.21602,12.9780168 539.232,17.0939756 539.232,21.966 C539.232,24.4860126 538.644006,27.0059874 537.468,29.526 L469.428,173.166 C467.579991,177.030019 464.808018,180.01199 461.112,182.112 C457.415982,184.212011 453.384022,185.262 449.016,185.262 C444.647978,185.262 440.616018,184.212011 436.92,182.112 C433.223982,180.01199 430.452009,177.030019 428.604,173.166 L360.564,29.526 C359.387994,27.1739882 358.8,24.7380126 358.8,22.218 C358.8,17.1779748 360.899979,12.9780168 365.1,9.618 C369.300021,6.2579832 374.003974,4.578 379.212,4.578 C382.740018,4.578 385.973985,5.45999118 388.914,7.224 C391.854015,8.98800882 394.079992,11.6339824 395.592,15.162 L449.52,133.098 L503.448,15.162 Z M578.04,185.262 C571.99197,185.262 567.204018,183.498018 563.676,179.97 C560.147982,176.441982 558.384,171.65403 558.384,165.606 L558.384,24.234 C558.384,18.3539706 560.147982,13.6500176 563.676,10.122 C567.204018,6.59398236 571.99197,4.83 578.04,4.83 C584.08803,4.83 588.875982,6.59398236 592.404,10.122 C595.932018,13.6500176 597.696,18.3539706 597.696,24.234 L597.696,165.606 C597.696,171.65403 595.932018,176.441982 592.404,179.97 C588.875982,183.498018 584.08803,185.262 578.04,185.262 Z M651.372,183.75 C645.491971,183.75 640.956016,182.154016 637.764,178.962 C634.571984,175.769984 632.976,171.234029 632.976,165.354 L632.976,24.486 C632.976,18.6059706 634.571984,14.070016 637.764,10.878 C640.956016,7.68598404 645.491971,6.09 651.372,6.09 L702.024,6.09 C721.344097,6.09 737.97593,9.61796472 751.92,16.674 C765.86407,23.7300353 776.531963,33.8939336 783.924,47.166 C791.316037,60.4380664 795.012,76.3139076 795.012,94.794 C795.012,113.274092 791.358037,129.191933 784.05,142.548 C776.741963,155.904067 766.11607,166.109965 752.172,173.166 C738.22793,180.222035 721.512097,183.75 702.024,183.75 L651.372,183.75 Z M699.252,151.998 C737.052189,151.998 755.952,132.930191 755.952,94.794 C755.952,56.8258102 737.052189,37.842 699.252,37.842 L672.288,37.842 L672.288,151.998 L699.252,151.998 Z M838.356,131.082 C826.42794,131.082 820.464,126.12605 820.464,116.214 C820.464,106.30195 826.42794,101.346 838.356,101.346 L887.748,101.346 C899.67606,101.346 905.64,106.30195 905.64,116.214 C905.64,126.12605 899.67606,131.082 887.748,131.082 L838.356,131.082 Z M1046.004,152.25 C1058.26806,152.25 1064.4,157.457948 1064.4,167.874 C1064.4,178.458053 1058.26806,183.75 1046.004,183.75 L959.82,183.75 C947.387938,183.75 941.172,178.458053 941.172,167.874 C941.172,157.457948 947.387938,152.25 959.82,152.25 L983.256,152.25 L983.256,49.182 L961.08,62.538 C958.559987,64.0500076 956.040013,64.806 953.52,64.806 C949.319979,64.806 945.750015,63.0420176 942.81,59.514 C939.869985,55.9859824 938.4,52.0380218 938.4,47.67 C938.4,41.7899706 941.003974,37.3380151 946.212,34.314 L986.028,10.374 C991.908029,6.84598236 997.787971,5.082 1003.668,5.082 C1009.21203,5.082 1013.74798,6.80398278 1017.276,10.248 C1020.80402,13.6920172 1022.568,18.3539706 1022.568,24.234 L1022.568,152.25 L1046.004,152.25 Z M1139.244,3.822 C1162.26012,3.822 1180.06794,11.4659236 1192.668,26.754 C1205.26806,42.0420764 1211.568,63.881858 1211.568,92.274 C1211.568,111.258095 1208.62803,127.847929 1202.748,142.044 C1196.86797,156.240071 1188.42606,167.117962 1177.422,174.678 C1166.41794,182.238038 1153.60807,186.018 1138.992,186.018 C1129.41595,186.018 1119.75605,184.422016 1110.012,181.23 C1100.26795,178.037984 1091.95203,173.586029 1085.064,167.874 C1082.71199,166.025991 1080.99001,164.052011 1079.898,161.952 C1078.80599,159.85199 1078.26,157.290015 1078.26,154.266 C1078.26,149.897978 1079.47799,146.160016 1081.914,143.052 C1084.35001,139.943984 1087.33198,138.39 1090.86,138.39 C1093.04401,138.39 1094.93399,138.683997 1096.53,139.272 C1098.12601,139.860003 1100.26799,140.909992 1102.956,142.422 C1109.67603,146.45402 1115.68197,149.603989 1120.974,151.872 C1126.26603,154.140011 1131.68397,155.274 1137.228,155.274 C1147.64405,155.274 1155.91797,150.486048 1162.05,140.91 C1168.18203,131.333952 1171.668,117.894087 1172.508,100.59 C1168.64398,106.974032 1163.18404,112.055981 1156.128,115.836 C1149.07196,119.616019 1141.17604,121.506 1132.44,121.506 C1122.02395,121.506 1112.74204,119.070024 1104.594,114.198 C1096.44596,109.325976 1090.06202,102.522044 1085.442,93.786 C1080.82198,85.0499563 1078.512,75.1380554 1078.512,64.05 C1078.512,52.457942 1081.11597,42.0840458 1086.324,32.928 C1091.53203,23.7719542 1098.75595,16.6320256 1107.996,11.508 C1117.23605,6.38397438 1127.65194,3.822 1139.244,3.822 Z M1141.512,91.014 C1149.40804,91.014 1155.79198,88.410026 1160.664,83.202 C1165.53602,77.993974 1167.972,71.190042 1167.972,62.79 C1167.972,54.389958 1165.53602,47.5440265 1160.664,42.252 C1155.79198,36.9599735 1149.40804,34.314 1141.512,34.314 C1133.61596,34.314 1127.27402,36.917974 1122.486,42.126 C1117.69798,47.334026 1115.304,54.2219572 1115.304,62.79 C1115.304,71.190042 1117.69798,77.993974 1122.486,83.202 C1127.27402,88.410026 1133.61596,91.014 1141.512,91.014 Z" id="COVID-19" fill="#424242" fill-rule="nonzero"></path>
        <path d="M269.4895,240.75 C277.468207,240.75 284.511803,242.682314 290.6205,246.547 C296.729197,250.411686 301.49765,255.896964 304.926,263.003 C308.35435,270.109036 310.0685,278.399286 310.0685,287.874 C310.0685,297.224047 308.35435,305.514297 304.926,312.745 C301.49765,319.975703 296.698031,325.585647 290.527,329.575 C284.355969,333.564353 277.343539,335.559 269.4895,335.559 C262.632799,335.559 256.586526,334.094181 251.3505,331.1645 C246.114474,328.234819 242.12518,324.027361 239.3825,318.542 L239.3825,326.022 C239.3825,328.76468 238.541008,330.977492 236.858,332.6605 C235.174992,334.343508 232.899848,335.185 230.0325,335.185 C227.165152,335.185 224.858842,334.343508 223.1135,332.6605 C221.368158,330.977492 220.4955,328.76468 220.4955,326.022 L220.4955,210.456 C220.4955,207.71332 221.399324,205.531675 223.207,203.911 C225.014676,202.290325 227.352152,201.48 230.2195,201.48 C232.96218,201.48 235.174992,202.259159 236.858,203.8175 C238.541008,205.375841 239.3825,207.463987 239.3825,210.082 L239.3825,257.954 C242.12518,252.468639 246.114474,248.230015 251.3505,245.238 C256.586526,242.245985 262.632799,240.75 269.4895,240.75 Z M265.0015,320.599 C273.104874,320.599 279.431644,317.731695 283.982,311.997 C288.532356,306.262305 290.8075,298.221385 290.8075,287.874 C290.8075,277.651282 288.563522,269.766194 284.0755,264.2185 C279.587478,258.670806 273.229541,255.897 265.0015,255.897 C256.773459,255.897 250.446689,258.701972 246.021,264.312 C241.595311,269.922028 239.3825,277.900615 239.3825,288.248 C239.3825,298.595385 241.595311,306.573972 246.021,312.184 C250.446689,317.794028 256.773459,320.599 265.0015,320.599 Z M395.9015,246.734 C396.649504,244.863991 397.740326,243.492671 399.174,242.62 C400.607674,241.747329 402.134825,241.311 403.7555,241.311 C406.124179,241.311 408.212324,242.121325 410.02,243.742 C411.827676,245.362675 412.7315,247.294989 412.7315,249.539 C412.7315,250.785673 412.482169,251.969994 411.9835,253.092 L359.9975,363.422 C359.249496,365.167342 358.158674,366.507495 356.725,367.4425 C355.291326,368.377505 353.764175,368.845 352.1435,368.845 C349.899489,368.845 347.873676,368.097007 346.066,366.601 C344.258324,365.104993 343.3545,363.235011 343.3545,360.991 C343.3545,359.993662 343.666164,358.747007 344.2895,357.251 L357.1925,329.762 L321.1015,253.092 C320.602831,252.094662 320.3535,250.972673 320.3535,249.726 C320.3535,247.357321 321.350823,245.362675 323.3455,243.742 C325.340177,242.121325 327.584154,241.311 330.0775,241.311 C333.817519,241.311 336.497825,243.056316 338.1185,246.547 L367.1035,310.875 L395.9015,246.734 Z M525.4925,241.124 C531.47653,240.749998 534.4685,243.305639 534.4685,248.791 C534.4685,251.53368 533.78284,253.59066 532.4115,254.962 C531.04016,256.33334 528.671517,257.143665 525.3055,257.393 L519.6955,257.954 C511.841461,258.702004 506.013352,261.444643 502.211,266.182 C498.408648,270.919357 496.5075,276.653966 496.5075,283.386 L496.5075,326.209 C496.5075,329.201015 495.634842,331.444993 493.8895,332.941 C492.144158,334.437007 489.90018,335.185 487.1575,335.185 C484.41482,335.185 482.139676,334.437007 480.332,332.941 C478.524324,331.444993 477.6205,329.201015 477.6205,326.209 L477.6205,250.1 C477.6205,247.232652 478.524324,245.019841 480.332,243.4615 C482.139676,241.903159 484.41482,241.124 487.1575,241.124 C489.650846,241.124 491.738992,241.903159 493.422,243.4615 C495.105008,245.019841 495.9465,247.17032 495.9465,249.913 L495.9465,258.889 C498.439846,253.403639 502.055143,249.227348 506.7925,246.36 C511.529857,243.492652 516.89047,241.809669 522.8745,241.311 L525.4925,241.124 Z M617.4965,311.249 C619.241842,311.249 620.675494,311.93466 621.7975,313.306 C622.919506,314.67734 623.4805,316.422656 623.4805,318.542 C623.4805,322.157351 621.236522,325.211654 616.7485,327.705 C612.385145,330.198346 607.616693,332.13066 602.443,333.502 C597.269307,334.87334 592.313857,335.559 587.5765,335.559 C573.115094,335.559 561.708208,331.351542 553.3555,322.9365 C545.002792,314.521458 540.8265,303.021073 540.8265,288.435 C540.8265,279.084953 542.665315,270.794703 546.343,263.564 C550.020685,256.333297 555.1943,250.723353 561.864,246.734 C568.5337,242.744647 576.107124,240.75 584.5845,240.75 C596.801894,240.75 606.463464,244.676961 613.5695,252.531 C620.675536,260.385039 624.2285,270.9816 624.2285,284.321 C624.2285,289.307692 621.984522,291.801 617.4965,291.801 L559.7135,291.801 C560.960173,311.12443 570.247747,320.786 587.5765,320.786 C592.18919,320.786 596.178483,320.162673 599.5445,318.916 C602.910517,317.669327 606.463481,316.048677 610.2035,314.054 C610.577502,313.804665 611.605992,313.274837 613.289,312.4645 C614.972008,311.654163 616.374494,311.249 617.4965,311.249 Z M584.9585,254.588 C577.727797,254.588 571.930855,256.89431 567.5675,261.507 C563.204145,266.11969 560.586171,272.602292 559.7135,280.955 L607.9595,280.955 C607.585498,272.477624 605.43502,265.963856 601.508,261.4135 C597.58098,256.863144 592.064536,254.588 584.9585,254.588 Z M720.5335,241.124 C723.400848,241.124 725.675992,241.965492 727.359,243.6485 C729.042008,245.331508 729.8835,247.54432 729.8835,250.287 L729.8835,326.957 C729.8835,340.919736 726.174704,351.453964 718.757,358.56 C711.339296,365.666036 700.399906,369.219 685.9385,369.219 C672.474433,369.219 661.254545,366.663359 652.2785,361.552 C647.66581,358.933987 645.3595,355.817351 645.3595,352.202 C645.3595,350.082656 645.951661,348.33734 647.136,346.966 C648.320339,345.59466 649.785158,344.909 651.5305,344.909 C653.151175,344.909 655.706816,345.843991 659.1975,347.714 C663.685522,349.833344 667.861814,351.485161 671.7265,352.6695 C675.591186,353.853839 680.203807,354.446 685.5645,354.446 C702.768586,354.446 711.3705,345.781753 711.3705,328.453 L711.3705,314.054 C708.752487,319.539361 704.763193,323.809151 699.4025,326.8635 C694.041807,329.917849 687.808536,331.445 680.7025,331.445 C672.723793,331.445 665.617864,329.575019 659.3845,325.835 C653.151135,322.094981 648.32035,316.796701 644.892,309.94 C641.46365,303.083299 639.7495,295.167045 639.7495,286.191 C639.7495,277.214955 641.494816,269.298701 644.9855,262.442 C648.476184,255.585299 653.306969,250.255852 659.478,246.4535 C665.649031,242.651148 672.723793,240.75 680.7025,240.75 C687.683868,240.75 693.82364,242.245985 699.122,245.238 C704.42036,248.230015 708.44082,252.468639 711.1835,257.954 L711.1835,250.1 C711.1835,247.35732 712.024992,245.175675 713.708,243.555 C715.391008,241.934325 717.666152,241.124 720.5335,241.124 Z M685.1905,316.485 C693.293874,316.485 699.65181,313.804693 704.2645,308.444 C708.87719,303.083307 711.1835,295.665714 711.1835,286.191 C711.1835,276.840953 708.908356,269.454527 704.358,264.0315 C699.807644,258.608473 693.418541,255.897 685.1905,255.897 C676.962459,255.897 670.511023,258.577307 665.836,263.938 C661.160977,269.298693 658.8235,276.716286 658.8235,286.191 C658.8235,295.665714 661.192143,303.083307 665.9295,308.444 C670.666857,313.804693 677.087126,316.485 685.1905,316.485 Z M765.7875,335.185 C763.04482,335.185 760.769676,334.437007 758.962,332.941 C757.154324,331.444993 756.2505,329.201015 756.2505,326.209 L756.2505,250.287 C756.2505,247.294985 757.154324,245.019841 758.962,243.4615 C760.769676,241.903159 763.04482,241.124 765.7875,241.124 C768.53018,241.124 770.774158,241.903159 772.5195,243.4615 C774.264842,245.019841 775.1375,247.294985 775.1375,250.287 L775.1375,326.209 C775.1375,329.201015 774.264842,331.444993 772.5195,332.941 C770.774158,334.437007 768.53018,335.185 765.7875,335.185 Z M765.7875,222.798 C762.172149,222.798 759.304844,221.800677 757.1855,219.806 C755.066156,217.811323 754.0065,215.19335 754.0065,211.952 C754.0065,208.71065 755.066156,206.123843 757.1855,204.1915 C759.304844,202.259157 762.172149,201.293 765.7875,201.293 C769.278184,201.293 772.114322,202.259157 774.296,204.1915 C776.477678,206.123843 777.5685,208.71065 777.5685,211.952 C777.5685,215.19335 776.508844,217.811323 774.3895,219.806 C772.270156,221.800677 769.402851,222.798 765.7875,222.798 Z M841.1485,335.559 C832.172455,335.559 824.287367,333.626686 817.493,329.762 C810.698633,325.897314 805.462685,320.380869 801.785,313.2125 C798.107315,306.044131 796.2685,297.722714 796.2685,288.248 C796.2685,278.648619 798.107315,270.264869 801.785,263.0965 C805.462685,255.928131 810.698633,250.411686 817.493,246.547 C824.287367,242.682314 832.172455,240.75 841.1485,240.75 C850.124545,240.75 858.009633,242.682314 864.804,246.547 C871.598367,250.411686 876.834315,255.928131 880.512,263.0965 C884.189685,270.264869 886.0285,278.648619 886.0285,288.248 C886.0285,297.722714 884.189685,306.044131 880.512,313.2125 C876.834315,320.380869 871.598367,325.897314 864.804,329.762 C858.009633,333.626686 850.124545,335.559 841.1485,335.559 Z M841.1485,320.599 C849.501208,320.599 855.890311,317.856361 860.316,312.371 C864.741689,306.885639 866.9545,298.84472 866.9545,288.248 C866.9545,277.775948 864.710522,269.766194 860.2225,264.2185 C855.734478,258.670806 849.376541,255.897 841.1485,255.897 C832.920459,255.897 826.562522,258.670806 822.0745,264.2185 C817.586478,269.766194 815.3425,277.775948 815.3425,288.248 C815.3425,298.84472 817.555311,306.885639 821.981,312.371 C826.406689,317.856361 832.795792,320.599 841.1485,320.599 Z M956.1535,240.75 C977.970276,240.75 988.8785,253.029544 988.8785,277.589 L988.8785,326.209 C988.8785,329.076348 988.037008,331.289159 986.354,332.8475 C984.670992,334.405841 982.333515,335.185 979.3415,335.185 C976.474152,335.185 974.199008,334.374675 972.516,332.754 C970.832992,331.133325 969.9915,328.95168 969.9915,326.209 L969.9915,278.524 C969.9915,270.794628 968.464349,265.122351 965.41,261.507 C962.355651,257.891649 957.587199,256.084 951.1045,256.084 C943.499795,256.084 937.39119,258.452643 932.7785,263.19 C928.16581,267.927357 925.8595,274.285293 925.8595,282.264 L925.8595,326.209 C925.8595,328.95168 925.018008,331.133325 923.335,332.754 C921.651992,334.374675 919.376848,335.185 916.5095,335.185 C913.642152,335.185 911.335842,334.374675 909.5905,332.754 C907.845158,331.133325 906.9725,328.95168 906.9725,326.209 L906.9725,250.1 C906.9725,247.481987 907.876324,245.331508 909.684,243.6485 C911.491676,241.965492 913.76682,241.124 916.5095,241.124 C919.25218,241.124 921.433825,241.934325 923.0545,243.555 C924.675175,245.175675 925.4855,247.294987 925.4855,249.913 L925.4855,257.58 C928.477515,252.094639 932.653807,247.918348 938.0145,245.051 C943.375193,242.183652 949.421466,240.75 956.1535,240.75 Z" id="byregion" fill="#424242" fill-rule="nonzero"></path>
    </g>
</svg>